<svg enable-background="new 0 0 511.997 511.997" viewBox="0 0 511.997 511.997" xmlns="http://www.w3.org/2000/svg"><path d="m405.387 362.612c-35.202 0-63.84 28.639-63.84 63.84s28.639 63.84 63.84 63.84 63.84-28.639 63.84-63.84-28.639-63.84-63.84-63.84zm0 89.376c-14.083 0-25.536-11.453-25.536-25.536s11.453-25.536 25.536-25.536 25.536 11.453 25.536 25.536-11.453 25.536-25.536 25.536z"/><path d="m507.927 115.875c-3.626-4.641-9.187-7.348-15.079-7.348h-374.628l-17.237-72.12c-2.062-8.618-9.768-14.702-18.629-14.702h-63.202c-10.578-.001-19.152 8.573-19.152 19.151s8.574 19.152 19.152 19.152h48.085l62.244 260.443c2.062 8.625 9.768 14.702 18.629 14.702h298.135c8.804 0 16.477-6.001 18.59-14.543l46.604-188.329c1.41-5.719.114-11.765-3.512-16.406zm-76.666 180.975h-268.034l-35.853-150.019h341.003z"/><path d="m173.646 362.612c-35.202 0-63.84 28.639-63.84 63.84s28.639 63.84 63.84 63.84 63.84-28.639 63.84-63.84-28.639-63.84-63.84-63.84zm0 89.376c-14.083 0-25.536-11.453-25.536-25.536s11.453-25.536 25.536-25.536 25.536 11.453 25.536 25.536-11.453 25.536-25.536 25.536z"/></svg>