<svg viewBox="0 0 595.66 595.3" xmlns="http://www.w3.org/2000/svg"><path d="M257 287.38H30.78a31.37 31.37 0 01-31.3-31.3V31.3A31.37 31.37 0 0130.78 0H257a31.37 31.37 0 0131.3 31.3v224.78a31.42 31.42 0 01-31.3 31.3z" fill="#86c441"/><path d="M564.36 287.38H338.11a31.37 31.37 0 01-31.3-31.3V31.3A31.37 31.37 0 01338.11 0h226.25a31.37 31.37 0 0131.3 31.3v224.78a31.37 31.37 0 01-31.3 31.3zM257 594.78H30.78a31.37 31.37 0 01-31.3-31.3V338.71a31.37 31.37 0 0131.3-31.3H257a31.37 31.37 0 0131.3 31.3v224.77a31.46 31.46 0 01-31.3 31.3z" fill="#f0c228"/><path d="M564.36 594.78H338.11a31.37 31.37 0 01-31.3-31.3V338.71a31.37 31.37 0 0131.3-31.3h226.25a31.37 31.37 0 0131.3 31.3v224.77a31.41 31.41 0 01-31.3 31.3z" fill="#86c441"/><g fill="#fff"><path d="M503.23 535a58.62 58.62 0 00-2.21-16.2H397.48a61.8 61.8 0 00-2.21 16.2 58.47 58.47 0 0021.5 45.74v14.56h64.44v-14.21c13.41-10.39 22.02-27.18 22.02-46.09zm-51.48-36.18s5.9-15.61 17.16-24.67 42.79-14.36 42.79-14.36-.73 22.46-14.5 33.65-44.49 11.86-44.49 11.86 24.89-5.45 34.62-12.81 9.79-20.77 9.79-20.77a28.15 28.15 0 01-11.63 19.66c-11 7.88-32.93 12.38-32.93 12.38"/><path d="M446.75 396.52h6.26v130.8h-6.26zM467 385.4a11.07 11.07 0 01-3.83 6.41c69.08 43.82 93 3 3.83-6.41zm-18.56-14.06c-11.27-67.39-61.28-52.07-7.88 2.28a19.28 19.28 0 017.88-2.28zm15.47 5a10.71 10.71 0 013.09 6c90.07-7.44 69.82-45.81-3.09-6zm-29.98 5.9a11.21 11.21 0 013.68-6.56c-69-42.27-92.79-1.47-3.68 6.56zm18.56-10.9a19.86 19.86 0 018.69 2.79c56.78-51.62 2.21-69.52-8.69-2.79zM437 391a10.65 10.65 0 01-3-5.82c-90.51 8.62-71.29 46 3 5.82z"/><path d="M451.83 396.23c11.27 67.39 61.27 52.07 7.88-2.28a18.66 18.66 0 01-7.88 2.28zm-3.98 0a19.86 19.86 0 01-8.69-2.8c-56.78 51.7-2.28 69.52 8.69 2.8z"/><ellipse cx="450.43" cy="383.63" rx="7.73" ry="5.82"/></g></svg>