<?xml version="1.0" encoding="UTF-8" standalone="no"?><svg xmlns:svg="http://www.w3.org/2000/svg" xmlns="http://www.w3.org/2000/svg" xmlns:xlink="http://www.w3.org/1999/xlink" version="1.0" width="42px" height="42px" viewBox="0 0 128 128" xml:space="preserve"><g><path d="M64 0a8 8 0 0 1 8 8c0 4.42-8 25.5-8 25.5S56 12.42 56 8a8 8 0 0 1 8-8z" fill="#82cc21" fill-opacity="1"/><path d="M64 0a8 8 0 0 1 8 8c0 4.42-8 25.5-8 25.5S56 12.42 56 8a8 8 0 0 1 8-8z" fill="#fcfef9" fill-opacity="0.03" transform="rotate(30 64 64)"/><path d="M64 0a8 8 0 0 1 8 8c0 4.42-8 25.5-8 25.5S56 12.42 56 8a8 8 0 0 1 8-8z" fill="#f4faeb" fill-opacity="0.09" transform="rotate(60 64 64)"/><path d="M64 0a8 8 0 0 1 8 8c0 4.42-8 25.5-8 25.5S56 12.42 56 8a8 8 0 0 1 8-8z" fill="#eaf6da" fill-opacity="0.17" transform="rotate(90 64 64)"/><path d="M64 0a8 8 0 0 1 8 8c0 4.42-8 25.5-8 25.5S56 12.42 56 8a8 8 0 0 1 8-8z" fill="#dff2c6" fill-opacity="0.25" transform="rotate(120 64 64)"/><path d="M64 0a8 8 0 0 1 8 8c0 4.42-8 25.5-8 25.5S56 12.42 56 8a8 8 0 0 1 8-8z" fill="#d3edb2" fill-opacity="0.35" transform="rotate(150 64 64)"/><path d="M64 0a8 8 0 0 1 8 8c0 4.42-8 25.5-8 25.5S56 12.42 56 8a8 8 0 0 1 8-8z" fill="#c8e89d" fill-opacity="0.44" transform="rotate(180 64 64)"/><path d="M64 0a8 8 0 0 1 8 8c0 4.42-8 25.5-8 25.5S56 12.42 56 8a8 8 0 0 1 8-8z" fill="#bae385" fill-opacity="0.55" transform="rotate(210 64 64)"/><path d="M64 0a8 8 0 0 1 8 8c0 4.42-8 25.5-8 25.5S56 12.42 56 8a8 8 0 0 1 8-8z" fill="#aede6f" fill-opacity="0.65" transform="rotate(240 64 64)"/><path d="M64 0a8 8 0 0 1 8 8c0 4.42-8 25.5-8 25.5S56 12.42 56 8a8 8 0 0 1 8-8z" fill="#a2d95a" fill-opacity="0.75" transform="rotate(270 64 64)"/><path d="M64 0a8 8 0 0 1 8 8c0 4.42-8 25.5-8 25.5S56 12.42 56 8a8 8 0 0 1 8-8z" fill="#97d446" fill-opacity="0.84" transform="rotate(300 64 64)"/><path d="M64 0a8 8 0 0 1 8 8c0 4.42-8 25.5-8 25.5S56 12.42 56 8a8 8 0 0 1 8-8z" fill="#8cd033" fill-opacity="0.92" transform="rotate(330 64 64)"/><animateTransform attributeName="transform" type="rotate" values="0 64 64;30 64 64;60 64 64;90 64 64;120 64 64;150 64 64;180 64 64;210 64 64;240 64 64;270 64 64;300 64 64;330 64 64" calcMode="discrete" dur="1080ms" repeatCount="indefinite"></animateTransform></g></svg>